<svg id="visual" viewBox="0 0 900 600" width="900" height="600" xmlns="http://www.w3.org/2000/svg" xmlns:xlink="http://www.w3.org/1999/xlink" version="1.1"><rect x="0" y="0" width="900" height="600" fill="#EDE3CC"></rect><defs><linearGradient id="grad1_0" x1="33.3%" y1="100%" x2="100%" y2="0%"><stop offset="20%" stop-color="#ede3cc" stop-opacity="1"></stop><stop offset="80%" stop-color="#ede3cc" stop-opacity="1"></stop></linearGradient></defs><defs><linearGradient id="grad2_0" x1="0%" y1="100%" x2="66.7%" y2="0%"><stop offset="20%" stop-color="#ede3cc" stop-opacity="1"></stop><stop offset="80%" stop-color="#ede3cc" stop-opacity="1"></stop></linearGradient></defs><g transform="translate(900, 600)"><path d="M-351.5 0C-324.3 -36.1 -297 -72.1 -284.6 -117.9C-272.1 -163.6 -274.5 -219 -248.6 -248.6C-222.6 -278.1 -168.2 -281.9 -122.1 -294.7C-75.9 -307.6 -38 -329.6 0 -351.5L0 0Z" fill="#C8EBD5"></path></g><g transform="translate(0, 0)"><path d="M351.5 0C343.9 43.9 336.3 87.9 321.5 133.2C306.7 178.5 284.7 225.1 248.6 248.6C212.4 272 162 272.2 118.2 285.5C74.5 298.8 37.2 325.2 0 351.5L0 0Z" fill="#C8EBD5"></path></g></svg>